<svg xmlns="http://www.w3.org/2000/svg" xmlns:xlink="http://www.w3.org/1999/xlink" version="1.1" id="Calque_1" x="0px" y="0px" style="enable-background:new 0 0 100 100;" xml:space="preserve" viewBox="10.1 38.3 79.9 21.3">
	<path class="st0" d="M31.6,38.5c2.1,0,4.3,0,6.5,0c0,3.3,0,6.6,0,9.8c0,0,0,0,0,0c0.1-0.2,0.3-0.4,0.4-0.7c1.8-3,3.5-6.1,5.3-9.1&#10;&#9;&#9;c0.1-0.1,0.1-0.1,0.2-0.1c2.4,0,4.7,0,7.1,0c0,0,0.1,0,0.2,0c0,3.3,0,6.6,0,9.8c0,0,0,0,0,0c0-0.1,0.1-0.1,0.1-0.2&#10;&#9;&#9;c1.7-2.9,3.4-5.8,5.1-8.7c0.2-0.3,0.3-0.6,0.5-0.9c0,0,0.1-0.1,0.2-0.1c2.4,0,4.8,0,7.2,0c0,0,0,0,0.1,0c0,0.1-0.1,0.1-0.1,0.1&#10;&#9;&#9;c-3.9,6.7-7.9,13.5-11.8,20.2c-0.1,0.2-0.2,0.3-0.3,0.5c0,0-0.1,0.1-0.1,0.1c-2.4,0-4.8,0-7.2,0c0,0,0,0,0,0c0-3.3,0-6.6,0-9.8&#10;&#9;&#9;c0,0,0,0,0,0c0,0.1-0.1,0.1-0.1,0.2c-1.9,3.2-3.7,6.4-5.6,9.6c0,0.1-0.1,0.1-0.2,0.1c-2.4,0-4.7,0-7.1,0c0,0-0.1,0-0.1,0&#10;&#9;&#9;C31.6,52.5,31.6,45.5,31.6,38.5z"/>
	<path class="st0" d="M73.9,38.5c0,7,0,14,0,21c-2.1,0-4.3,0-6.5,0c0-3.3,0-6.6,0-9.8c0,0,0,0,0,0c0,0-0.1,0.1-0.1,0.1&#10;&#9;&#9;c-1.9,3.2-3.7,6.4-5.6,9.6c-0.1,0.1-0.2,0.2-0.3,0.2c-2.3,0-4.6,0-7,0c-0.1,0-0.1,0-0.2,0c0-0.1,0.1-0.1,0.1-0.2&#10;&#9;&#9;c4-6.9,8.1-13.8,12.1-20.7c0.1-0.1,0.1-0.2,0.3-0.2c2.3,0,4.7,0,7,0C73.8,38.5,73.8,38.5,73.9,38.5z"/>
	<path class="st0" d="M29.6,38.5c0,7,0,14,0,21c-2.1,0-4.3,0-6.4,0c0-3.3,0-6.6,0-9.9c0,0,0,0,0,0c0,0-0.1,0.1-0.1,0.1&#10;&#9;&#9;c-1.9,3.2-3.8,6.4-5.6,9.6c0,0.1-0.1,0.1-0.2,0.1c-2.4,0-4.7,0-7.1,0c0,0-0.1,0-0.1,0c0-0.1,0-0.1,0.1-0.1&#10;&#9;&#9;c4-6.9,8.1-13.8,12.1-20.7c0.1-0.1,0.1-0.1,0.2-0.1c2.3,0,4.7,0,7,0C29.5,38.5,29.5,38.5,29.6,38.5z"/>
	<path class="st0" d="M82.4,38.5c0,4.8,0,9.7,0,14.5c2.5,0,5.1,0,7.6,0c0,2.2,0,4.3,0,6.5c-4.7,0-9.4,0-14.1,0c0-7,0-14,0-21&#10;&#9;&#9;C78.1,38.5,80.2,38.5,82.4,38.5z"/>
</svg>